<?xml version="1.0" encoding="UTF-8" standalone="no"?>
<!-- Created with Inkscape (http://www.inkscape.org/) -->

<svg
   xmlns:dc="http://purl.org/dc/elements/1.1/"
   xmlns:cc="http://creativecommons.org/ns#"
   xmlns:rdf="http://www.w3.org/1999/02/22-rdf-syntax-ns#"
   xmlns:svg="http://www.w3.org/2000/svg"
   xmlns="http://www.w3.org/2000/svg"
   xmlns:xlink="http://www.w3.org/1999/xlink"
   xmlns:sodipodi="http://sodipodi.sourceforge.net/DTD/sodipodi-0.dtd"
   xmlns:inkscape="http://www.inkscape.org/namespaces/inkscape"
   id="svg2915"
   version="1.1"
   inkscape:version="0.47 r22583"
   width="560"
   height="420"
   sodipodi:docname="frenchangelfish.jpg">
  <metadata
     id="metadata2921">
    <rdf:RDF>
      <cc:Work
         rdf:about="">
        <dc:format>image/svg+xml</dc:format>
        <dc:type
           rdf:resource="http://purl.org/dc/dcmitype/StillImage" />
        <dc:title></dc:title>
      </cc:Work>
    </rdf:RDF>
  </metadata>
  <defs
     id="defs2919">
    <inkscape:perspective
       sodipodi:type="inkscape:persp3d"
       inkscape:vp_x="0 : 0.5 : 1"
       inkscape:vp_y="0 : 1000 : 0"
       inkscape:vp_z="1 : 0.5 : 1"
       inkscape:persp3d-origin="0.5 : 0.33333333 : 1"
       id="perspective2923" />
    <clipPath
       clipPathUnits="userSpaceOnUse"
       id="clipPath2933">
      <path
         style="fill:none;stroke:#000000;stroke-width:1px;stroke-linecap:butt;stroke-linejoin:miter;stroke-opacity:1"
         d="m 110.88967,236.04349 0,-4.29805 4.29805,-6.87688 9.45571,-8.59609 11.17493,-19.77103 20.63063,-27.50752 28.36713,-32.66517 20.63063,-12.89415 33.52479,-21.49024 48.99776,-19.771031 54.15542,-12.034538 66.18996,-9.455708 30.08634,7.736488 39.54206,12.894148 32.66517,7.736489 -32.66517,0 -23.20947,-5.157659 -17.1922,4.298049 -4.29805,15.472982 2.57883,18.91141 -1.71922,29.22674 -6.01726,25.78829 -12.03454,22.34986 -6.87688,9.45571 12.89415,-7.73649 20.63063,-10.31532 20.63064,-10.31532 8.5961,6.01727 12.03454,19.77103 4.29804,25.78829 -0.85961,20.63064 -7.73648,16.33259 -14.61337,12.89414 -4.29805,4.29805 -22.34986,-8.5961 -16.33258,-10.31531 -12.03454,-6.87688 15.47298,26.6479 10.31531,32.66518 -1.71922,25.78829 0.85961,11.17493 5.15766,9.45571 12.89415,1.71922 19.77103,-0.85961 20.63063,-0.85961 -26.6479,9.45571 -29.22674,2.57883 -34.38439,-0.85961 -50.71698,-7.73649 -21.49025,-6.87688 -26.6479,-7.73649 -20.63064,-7.73649 -14.61337,-7.73649 5.15766,8.5961 3.43844,0.85961 11.17493,7.73649 8.5961,0.85961 5.15766,4.29805 -6.87688,2.57883 13.75376,0.85961 16.33258,0.85961 -18.91141,5.15766 -20.63064,-0.85961 -19.77103,-4.29805 -35.244,-17.1922 -37.82283,-21.49024 -21.49025,-10.31532 -16.33259,-16.33259 -16.33258,-18.05181 -10.31532,-12.89414 -8.5961,-15.47298 -2.57883,-5.15766 -6.01727,-1.71922 -2.57883,-5.15766 1.71922,-6.87688 z"
         id="path2935" />
    </clipPath>
  </defs>
  <sodipodi:namedview
     pagecolor="#ffffff"
     bordercolor="#666666"
     borderopacity="1"
     objecttolerance="10"
     gridtolerance="10"
     guidetolerance="10"
     inkscape:pageopacity="0"
     inkscape:pageshadow="2"
     inkscape:window-width="1277"
     inkscape:window-height="758"
     id="namedview2917"
     showgrid="false"
     inkscape:zoom="1.1633185"
     inkscape:cx="280"
     inkscape:cy="210"
     inkscape:window-x="0"
     inkscape:window-y="0"
     inkscape:window-maximized="0"
     inkscape:current-layer="svg2915" />
  <image
     xlink:href="file:///Users/sdeibel/pygame-ajanta/fishtank/fish/frenchangelfish.jpg"
     width="560"
     height="420"
     id="image2925"
     x="0"
     y="0"
     clip-path="url(#clipPath2933)" />
</svg>
